<svg xmlns="http://www.w3.org/2000/svg" width="50" height="50" viewBox="0 0 50 50">
  <path id="linkedin-icon" d="M25,50A25.007,25.007,0,0,1,15.269,1.965,25.007,25.007,0,0,1,34.731,48.036,24.843,24.843,0,0,1,25,50Zm5.35-25.866h0c1.48,0,2.973,1.146,2.973,3.707v8.537h5.071v-10.3c0-4.773-3.207-6.467-5.953-6.467A5.965,5.965,0,0,0,27.2,22.306v-2.19h-5.05V36.379H27.2V27.841C27.2,25.408,28.783,24.135,30.351,24.134ZM14,20.116V36.379h5.081V20.116ZM16.541,13a2.541,2.541,0,1,0,2.521,2.541A2.534,2.534,0,0,0,16.541,13Z" fill="#8ecc14"/>
</svg>
