<svg xmlns="http://www.w3.org/2000/svg" width="50" height="50" viewBox="0 0 50 50">
  <path id="instagram-icon" d="M30.894,13.129c-1.538-.071-2-.083-5.894-.083s-4.354.015-5.892.083c-3.956.181-5.8,2.054-5.979,5.979-.069,1.537-.085,2-.085,5.892s.017,4.354.085,5.894c.181,3.915,2.015,5.8,5.979,5.979,1.535.069,2,.085,5.892.085s4.356-.015,5.894-.085c3.956-.179,5.8-2.058,5.979-5.979.069-1.537.083-2,.083-5.894s-.015-4.354-.083-5.892c-.183-3.923-2.027-5.8-5.979-5.979ZM25,32.49A7.489,7.489,0,1,1,32.49,25,7.489,7.489,0,0,1,25,32.49Zm7.785-13.523a1.75,1.75,0,1,1,1.75-1.75A1.75,1.75,0,0,1,32.785,18.967ZM29.86,25A4.86,4.86,0,1,1,25,20.14,4.86,4.86,0,0,1,29.86,25ZM25,0A25,25,0,1,0,50,25,25,25,0,0,0,25,0ZM39.5,31.013c-.24,5.3-3.192,8.24-8.481,8.483-1.556.071-2.054.088-6.015.088s-4.456-.017-6.012-.088c-5.3-.244-8.24-3.185-8.483-8.483-.071-1.554-.087-2.052-.087-6.013s.017-4.456.087-6.012c.244-5.3,3.185-8.24,8.483-8.481,1.556-.073,2.052-.09,6.012-.09s4.458.017,6.015.09c5.3.244,8.244,3.192,8.481,8.481.071,1.556.088,2.052.088,6.012S39.567,29.458,39.5,31.013Z" fill="#8ecc14"/>
</svg>
